<svg width="36" height="37" viewBox="0 0 36 37" fill="none" xmlns="http://www.w3.org/2000/svg">
<rect y="0.0559082" width="36" height="36" rx="6" fill="#213C8D"/>
<path opacity="0.4" d="M28 13.8659V22.2459C28 25.0559 26.71 26.9859 24.44 27.7159C23.78 27.9459 23.02 28.0559 22.19 28.0559H13.81C12.98 28.0559 12.22 27.9459 11.56 27.7159C9.29 26.9859 8 25.0559 8 22.2459V13.8659C8 10.2259 10.17 8.05591 13.81 8.05591H22.19C25.83 8.05591 28 10.2259 28 13.8659Z" fill="#34C759"/>
<path d="M24.4401 27.7159C23.7801 27.9459 23.0201 28.0559 22.1901 28.0559H13.8101C12.9801 28.0559 12.2201 27.9459 11.5601 27.7159C11.9101 25.0759 14.6701 23.0259 18.0001 23.0259C21.3301 23.0259 24.0901 25.0759 24.4401 27.7159Z" fill="#34C759"/>
<path d="M21.5799 17.6359C21.5799 19.6159 19.9799 21.2259 17.9999 21.2259C16.0199 21.2259 14.4199 19.6159 14.4199 17.6359C14.4199 15.6559 16.0199 14.0559 17.9999 14.0559C19.9799 14.0559 21.5799 15.6559 21.5799 17.6359Z" fill="#34C759"/>
</svg>
