<svg width="25" height="24" viewBox="0 0 25 24" fill="none" xmlns="http://www.w3.org/2000/svg">
<path opacity="0.4" d="M18.03 7.77C17.96 7.76 17.89 7.76 17.82 7.77C16.27 7.72 15.04 6.45 15.04 4.89C15.04 3.3 16.33 2 17.93 2C19.52 2 20.82 3.29 20.82 4.89C20.81 6.45 19.58 7.72 18.03 7.77Z" fill="#FF2D55"/>
<path opacity="0.4" d="M21.29 14.6999C20.17 15.4499 18.6 15.7299 17.15 15.5399C17.53 14.7199 17.73 13.8099 17.74 12.8499C17.74 11.8499 17.52 10.8999 17.1 10.0699C18.58 9.86992 20.15 10.1499 21.28 10.8999C22.86 11.9399 22.86 13.6499 21.29 14.6999Z" fill="#FF2D55"/>
<path opacity="0.4" d="M6.93999 7.77C7.00999 7.76 7.07999 7.76 7.14999 7.77C8.69999 7.72 9.92999 6.45 9.92999 4.89C9.92999 3.3 8.63999 2 7.03999 2C5.44999 2 4.14999 3.29 4.14999 4.89C4.15999 6.45 5.38999 7.72 6.93999 7.77Z" fill="#FF2D55"/>
<path opacity="0.4" d="M7.04999 12.8501C7.04999 13.8201 7.25999 14.7401 7.63999 15.5701C6.22999 15.7201 4.76 15.4201 3.68 14.7101C2.1 13.6601 2.1 11.9501 3.68 10.9001C4.75 10.1801 6.25999 9.8901 7.68 10.0501C7.27 10.8901 7.04999 11.8401 7.04999 12.8501Z" fill="#FF2D55"/>
<path d="M12.62 15.87C12.54 15.86 12.45 15.86 12.36 15.87C10.52 15.81 9.05 14.3 9.05 12.44C9.05 10.54 10.58 9 12.49 9C14.39 9 15.93 10.54 15.93 12.44C15.93 14.3 14.47 15.81 12.62 15.87Z" fill="#FF2D55"/>
<path d="M9.37 17.9399C7.86 18.9499 7.86 20.6099 9.37 21.6099C11.09 22.7599 13.91 22.7599 15.63 21.6099C17.14 20.5999 17.14 18.9399 15.63 17.9399C13.92 16.7899 11.1 16.7899 9.37 17.9399Z" fill="#FF2D55"/>
</svg>
