<svg width="37" height="37" viewBox="0 0 37 37" fill="none" xmlns="http://www.w3.org/2000/svg">
<rect x="0.5" y="0.0559082" width="36" height="36" rx="6" fill="white"/>
<path opacity="0.4" d="M24.03 13.8259C23.96 13.8159 23.89 13.8159 23.82 13.8259C22.27 13.7759 21.04 12.5059 21.04 10.9459C21.04 9.35591 22.33 8.05591 23.93 8.05591C25.52 8.05591 26.82 9.34591 26.82 10.9459C26.81 12.5059 25.58 13.7759 24.03 13.8259Z" fill="#FF2D55"/>
<path opacity="0.4" d="M27.2901 20.7558C26.1701 21.5058 24.6001 21.7858 23.1501 21.5958C23.5301 20.7758 23.7301 19.8658 23.7401 18.9058C23.7401 17.9058 23.5201 16.9558 23.1001 16.1258C24.5801 15.9258 26.1501 16.2058 27.2801 16.9558C28.8601 17.9958 28.8601 19.7058 27.2901 20.7558Z" fill="#FF2D55"/>
<path opacity="0.4" d="M12.9399 13.8259C13.0099 13.8159 13.0799 13.8159 13.1499 13.8259C14.6999 13.7759 15.9299 12.5059 15.9299 10.9459C15.9299 9.35591 14.6399 8.05591 13.0399 8.05591C11.4499 8.05591 10.1499 9.34591 10.1499 10.9459C10.1599 12.5059 11.3899 13.7759 12.9399 13.8259Z" fill="#FF2D55"/>
<path opacity="0.4" d="M13.0501 18.906C13.0501 19.876 13.2601 20.796 13.6401 21.626C12.2301 21.776 10.7601 21.476 9.68012 20.766C8.10012 19.716 8.10012 18.006 9.68012 16.956C10.7501 16.236 12.2601 15.946 13.6801 16.106C13.2701 16.946 13.0501 17.896 13.0501 18.906Z" fill="#FF2D55"/>
<path d="M18.62 21.9259C18.54 21.9159 18.4501 21.9159 18.3601 21.9259C16.5201 21.8659 15.05 20.3559 15.05 18.4959C15.05 16.5959 16.5801 15.0559 18.4901 15.0559C20.3901 15.0559 21.93 16.5959 21.93 18.4959C21.93 20.3559 20.47 21.8659 18.62 21.9259Z" fill="#FF2D55"/>
<path d="M15.37 23.9958C13.86 25.0058 13.86 26.6658 15.37 27.6658C17.09 28.8158 19.9101 28.8158 21.6301 27.6658C23.1401 26.6558 23.1401 24.9958 21.6301 23.9958C19.9201 22.8458 17.1 22.8458 15.37 23.9958Z" fill="#FF2D55"/>
</svg>
