<svg width="36" height="37" viewBox="0 0 36 37" fill="none" xmlns="http://www.w3.org/2000/svg">
<rect y="0.0559082" width="36" height="36" rx="6" fill="white"/>
<path opacity="0.4" d="M22 8.05591H12C8.8 8.05591 8 8.85591 8 12.0559V17.9559C8.03 20.9859 8.87 21.7559 12 21.7559H14.25V25.3059H10.95C10.54 25.3059 10.2 25.6459 10.2 26.0559C10.2 26.4659 10.54 26.8059 10.95 26.8059H18.25C18.1 26.4159 18.03 25.9259 18.02 25.3059H15.75V21.7559H18.02V17.9559V16.6459C18.02 14.5059 18.73 13.7959 20.87 13.7959H25.15C25.46 13.7959 25.75 13.8159 26 13.8459V12.0559C26 8.85591 25.2 8.05591 22 8.05591Z" fill="#B1D315"/>
<path d="M26 13.8459C25.75 13.8159 25.46 13.7959 25.15 13.7959H20.87C18.73 13.7959 18.02 14.5059 18.02 16.6459V25.3059C18.03 25.9259 18.1 26.4159 18.25 26.8059C18.6 27.7159 19.39 28.0559 20.87 28.0559H25.15C27.29 28.0559 28 27.3459 28 25.2059V16.6459C28 14.8159 27.48 14.0359 26 13.8459ZM23.01 16.1459C23.88 16.1459 24.58 16.8459 24.58 17.7159C24.58 18.5859 23.88 19.2859 23.01 19.2859C22.14 19.2859 21.44 18.5859 21.44 17.7159C21.44 16.8459 22.14 16.1459 23.01 16.1459ZM23.01 25.2059C21.83 25.2059 20.87 24.2459 20.87 23.0659C20.87 22.5759 21.04 22.1159 21.32 21.7559C21.71 21.2559 22.32 20.9259 23.01 20.9259C23.55 20.9259 24.04 21.1259 24.41 21.4459C24.86 21.8459 25.15 22.4259 25.15 23.0659C25.15 24.2459 24.19 25.2059 23.01 25.2059Z" fill="#B1D315"/>
<path opacity="0.4" d="M25.15 23.0658C25.15 24.2458 24.19 25.2058 23.01 25.2058C21.83 25.2058 20.87 24.2458 20.87 23.0658C20.87 22.5758 21.04 22.1158 21.32 21.7558C21.71 21.2558 22.32 20.9258 23.01 20.9258C23.55 20.9258 24.04 21.1258 24.41 21.4458C24.86 21.8458 25.15 22.4258 25.15 23.0658Z" fill="#292D32"/>
<path opacity="0.4" d="M23.0099 19.2859C23.877 19.2859 24.5799 18.583 24.5799 17.7159C24.5799 16.8489 23.877 16.146 23.0099 16.146C22.1429 16.146 21.4399 16.8489 21.4399 17.7159C21.4399 18.583 22.1429 19.2859 23.0099 19.2859Z" fill="#292D32"/>
</svg>
