<svg width="37" height="37" viewBox="0 0 37 37" fill="none" xmlns="http://www.w3.org/2000/svg">
<rect x="0.5" y="0.0559082" width="36" height="36" rx="6" fill="white"/>
<path opacity="0.4" d="M28.47 12.4659V18.9659H8.5V12.4659C8.5 10.0359 10.48 8.05591 12.91 8.05591H24.06C26.49 8.05591 28.47 10.0359 28.47 12.4659Z" fill="#5856D6"/>
<path d="M8.5 18.9758V19.1758C8.5 21.6158 10.48 23.5858 12.91 23.5858H16.75C17.3 23.5858 17.75 24.0358 17.75 24.5858V25.5558C17.75 26.1058 17.3 26.5558 16.75 26.5558H14.33C13.92 26.5558 13.58 26.8958 13.58 27.3058C13.58 27.7158 13.91 28.0558 14.33 28.0558H22.68C23.09 28.0558 23.43 27.7158 23.43 27.3058C23.43 26.8958 23.09 26.5558 22.68 26.5558H20.26C19.71 26.5558 19.26 26.1058 19.26 25.5558V24.5858C19.26 24.0358 19.71 23.5858 20.26 23.5858H24.07C26.51 23.5858 28.48 21.6058 28.48 19.1758V18.9758H8.5Z" fill="#5856D6"/>
</svg>
