<svg width="25" height="24" viewBox="0 0 25 24" fill="none" xmlns="http://www.w3.org/2000/svg">
<path opacity="0.4" d="M22.47 6.41V12.91H2.5V6.41C2.5 3.98 4.48 2 6.91 2H18.06C20.49 2 22.47 3.98 22.47 6.41Z" fill="#5856D6"/>
<path d="M2.5 12.9199V13.1199C2.5 15.5599 4.48 17.5299 6.91 17.5299H10.75C11.3 17.5299 11.75 17.9799 11.75 18.5299V19.4999C11.75 20.0499 11.3 20.4999 10.75 20.4999H8.33C7.92 20.4999 7.58 20.8399 7.58 21.2499C7.58 21.6599 7.91 21.9999 8.33 21.9999H16.68C17.09 21.9999 17.43 21.6599 17.43 21.2499C17.43 20.8399 17.09 20.4999 16.68 20.4999H14.26C13.71 20.4999 13.26 20.0499 13.26 19.4999V18.5299C13.26 17.9799 13.71 17.5299 14.26 17.5299H18.07C20.51 17.5299 22.48 15.5499 22.48 13.1199V12.9199H2.5Z" fill="#5856D6"/>
</svg>
