<svg width="80" height="81" viewBox="0 0 80 81" fill="none" xmlns="http://www.w3.org/2000/svg">
<g clip-path="url(#clip0_136_2984)">
<path d="M63.75 45.739V2.70898C63.75 2.04594 63.4866 1.41006 63.0178 0.941217C62.5489 0.472377 61.913 0.208984 61.25 0.208984C60.587 0.208984 59.9511 0.472377 59.4822 0.941217C59.0134 1.41006 58.75 2.04594 58.75 2.70898V45.739C59.5371 45.3895 60.3888 45.209 61.25 45.209C62.1112 45.209 62.9629 45.3895 63.75 45.739Z" fill="#213C8D"/>
<path d="M65 51.959V51.459C65 50.4644 64.6049 49.5106 63.9016 48.8073C63.1984 48.1041 62.2446 47.709 61.25 47.709C60.2554 47.709 59.3016 48.1041 58.5984 48.8073C57.8951 49.5106 57.5 50.4644 57.5 51.459V51.959C59.9567 51.3007 62.5433 51.3007 65 51.959Z" fill="black"/>
<path d="M54.91 65.9787L54.91 65.9777C54.91 65.381 55.1471 64.8087 55.569 64.3867C55.991 63.9648 56.5633 63.7277 57.16 63.7277C57.7567 63.7277 58.329 63.9648 58.751 64.3867C59.1727 64.8085 59.4098 65.3804 59.41 65.9768C59.41 65.9771 59.41 65.9774 59.41 65.9777H58.41L54.91 65.9787ZM54.91 65.9787C54.9144 70.3981 54.6843 74.8144 54.2207 79.209H47.5021C47.4574 79.2087 47.4136 79.1963 47.3753 79.1733C47.3366 79.1501 47.305 79.1169 47.2837 79.0772C47.2624 79.0375 47.2522 78.9928 47.2542 78.9478C47.2562 78.9034 47.27 78.8604 47.2941 78.8231L54.91 65.9787ZM67.59 65.9777V65.9787C67.5855 70.3981 67.8156 74.8144 68.2793 79.209H75H75.0001C75.0454 79.209 75.0898 79.1967 75.1286 79.1735C75.1675 79.1502 75.1993 79.1168 75.2206 79.0769C75.242 79.037 75.2521 78.9921 75.2499 78.9469C75.2477 78.9017 75.2333 78.8579 75.2081 78.8202C73.6046 76.4191 72.7492 73.5963 72.75 70.709C72.75 70.7089 72.75 70.7088 72.75 70.7087V66.459C72.75 63.409 71.5384 60.4839 69.3817 58.3273C67.2251 56.1706 64.3 54.959 61.25 54.959C58.2 54.959 55.2749 56.1706 53.1183 58.3273C50.9616 60.4839 49.75 63.409 49.75 66.459L49.75 70.7082C49.75 70.7083 49.75 70.7084 49.75 70.7085V70.709H48.75L67.59 65.9777ZM67.59 65.9777C67.59 65.381 67.3529 64.8087 66.931 64.3867C66.509 63.9648 65.9367 63.7277 65.34 63.7277C64.7433 63.7277 64.171 63.9648 63.749 64.3867C63.3273 64.8085 63.0902 65.3804 63.09 65.9768M67.59 65.9777L63.7557 79.209M63.09 65.9768C63.0859 70.3963 63.3081 74.8128 63.7557 79.209M63.09 65.9768L64.09 65.9777H63.09C63.09 65.9774 63.09 65.9771 63.09 65.9768ZM63.7557 79.209H58.7443H63.7557Z" stroke="#00A1E1" stroke-width="2"/>
<path d="M16.6004 77.8412C15.9628 77.2846 15.5471 76.5169 15.4296 75.6787C15.4295 75.678 15.4294 75.6773 15.4294 75.6766L12.6722 55.459H42.3278L39.5707 75.6775C39.5706 75.6783 39.5705 75.6791 39.5704 75.6798C39.4527 76.5177 39.0369 77.2852 38.3994 77.8415C37.7618 78.3979 36.9451 78.7058 36.0989 78.709H18.9012C18.0549 78.7058 17.2381 78.3978 16.6004 77.8412Z" stroke="#213C8D" stroke-width="3"/>
<path d="M50 49.584C50.3315 49.584 50.6495 49.4523 50.8839 49.2179C51.1183 48.9834 51.25 48.6655 51.25 48.334V46.459C51.25 40.1601 48.7478 34.1192 44.2938 29.6652C39.8398 25.2112 33.7989 22.709 27.5 22.709C21.2011 22.709 15.1602 25.2112 10.7062 29.6652C6.25222 34.1192 3.75 40.1601 3.75 46.459V48.334C3.75 48.6655 3.8817 48.9834 4.11612 49.2179C4.35054 49.4523 4.66848 49.584 5 49.584H8.38875C8.63178 50.1408 9.03186 50.6148 9.54003 50.9478C10.0482 51.2808 10.6424 51.4584 11.25 51.459H43.75C44.3576 51.4584 44.9518 51.2808 45.46 50.9478C45.9681 50.6148 46.3682 50.1408 46.6113 49.584H50ZM43.75 45.209H11.25C10.6424 45.2095 10.0482 45.3872 9.54003 45.7202C9.03186 46.0532 8.63178 46.5271 8.38875 47.084H6.25V46.459C6.25 40.8231 8.48883 35.4181 12.474 31.433C16.4591 27.4478 21.8641 25.209 27.5 25.209C33.1359 25.209 38.5409 27.4478 42.526 31.433C46.5112 35.4181 48.75 40.8231 48.75 46.459V47.084H46.6113C46.3682 46.5271 45.9681 46.0532 45.46 45.7202C44.9518 45.3872 44.3576 45.2095 43.75 45.209Z" fill="#00A1E1"/>
</g>
<defs>
<clipPath id="clip0_136_2984">
<rect width="80" height="80" fill="white" transform="translate(0 0.208984)"/>
</clipPath>
</defs>
</svg>
