<svg width="80" height="81" viewBox="0 0 80 81" fill="none" xmlns="http://www.w3.org/2000/svg">
<g clip-path="url(#clip0_136_2995)">
<path d="M14.5037 57.9281V18.7561H65.4962V57.9283H62.0461V22.2169C62.0461 21.8391 61.7398 21.5327 61.3619 21.5327H18.6381C18.2603 21.5327 17.9539 21.8389 17.9539 22.2169V57.9283L14.5037 57.9281ZM19.3222 25.5113H60.6778V22.901H19.3222V25.5113ZM19.3222 26.8795V29.4902H60.6778V26.8795H19.3222ZM11.3592 59.2966V61.6566H68.6408V59.2966H11.3592ZM29.2678 48.0577L26.4508 48.0669V50.6435C26.4508 50.8888 26.3195 51.1153 26.1066 51.2372C26.0011 51.2975 25.8838 51.3277 25.7666 51.3277C25.6469 51.3277 25.5272 51.2963 25.4203 51.2335L24.2952 50.5731L23.1698 51.2335C22.9584 51.3577 22.6966 51.3591 22.4836 51.2371C22.2706 51.1152 22.1394 50.8886 22.1394 50.6433V48.0808L19.3222 48.09V57.9283H29.2678V48.0577ZM24.6416 49.1897L25.0825 49.4486V48.0714L23.5078 48.0764V49.4488L23.9489 49.1899C24.1625 49.0642 24.4275 49.0642 24.6416 49.1897ZM40.5816 48.0213L37.7647 48.0303V50.6435C37.7647 50.8888 37.6334 51.1153 37.4205 51.2372C37.315 51.2975 37.1977 51.3277 37.0805 51.3277C36.9606 51.3277 36.8409 51.2963 36.7342 51.2335L35.6089 50.5731L34.4836 51.2335C34.2722 51.3577 34.0103 51.3591 33.7973 51.2371C33.5845 51.1152 33.4531 50.8886 33.4531 50.6433V48.0441L30.6361 48.0531V57.928H40.5816V48.0213ZM35.9552 49.1897L36.3963 49.4486V48.0347L34.8214 48.0399V49.4488L35.2625 49.1899C35.4764 49.0642 35.7414 49.0642 35.9552 49.1897ZM51.8955 47.9847L49.0786 47.9939V50.6436C49.0786 50.8889 48.9473 51.1155 48.7344 51.2374C48.6291 51.2977 48.5117 51.3278 48.3944 51.3278C48.2745 51.3278 48.1548 51.2964 48.0481 51.2336L46.9228 50.5733L45.7975 51.2336C45.5859 51.3578 45.3242 51.3592 45.1113 51.2372C44.8984 51.1153 44.767 50.8888 44.767 50.6435V48.0078L41.95 48.0169V57.9283H51.8955V47.9847ZM46.5766 49.1897C46.7903 49.0642 47.0553 49.0642 47.2691 49.1897L47.7102 49.4486V47.9981L46.1353 48.0033V49.4486L46.5766 49.1897ZM19.3222 36.775V46.7216L29.2678 46.6894V36.7269L26.4508 36.7405V39.3294C26.4508 39.5747 26.3195 39.8013 26.1066 39.9231C26.0013 39.9835 25.8838 40.0136 25.7666 40.0136C25.6469 40.0136 25.5272 39.9822 25.4203 39.9194L24.295 39.2589L23.1697 39.9194C22.9581 40.0435 22.6962 40.0447 22.4834 39.923C22.2705 39.8011 22.1392 39.5745 22.1392 39.3292V36.7611L19.3222 36.775ZM23.9489 37.8758C24.1627 37.7503 24.4277 37.7503 24.6414 37.8758L25.0825 38.1347V36.7472L23.5078 36.7549V38.1347L23.9489 37.8758ZM40.5816 46.6528V36.672L37.7647 36.6856V39.3294C37.7647 39.5747 37.6334 39.8013 37.4205 39.9231C37.3152 39.9835 37.1978 40.0136 37.0805 40.0136C36.9606 40.0136 36.8409 39.9822 36.7342 39.9194L35.6089 39.2589L34.4836 39.9194C34.272 40.0435 34.0102 40.0447 33.7973 39.923C33.5845 39.8011 33.4531 39.5745 33.4531 39.3292V36.7064L30.6361 36.72V46.6847L40.5816 46.6528ZM35.2627 37.8758C35.4764 37.7503 35.7414 37.7503 35.9552 37.8758L36.3963 38.1347V36.6924L34.8214 36.6999V38.1347L35.2627 37.8758ZM68.2842 11.9222C60.8814 4.51924 51.0884 0.375332 40.6452 0.211426V2.3533C61.2242 2.69861 77.8586 19.5466 77.8586 40.2064C77.8586 61.0817 60.8753 78.065 40 78.065C19.1247 78.065 2.14141 61.0817 2.14141 40.2064C2.14141 33.1289 4.11625 26.222 7.85234 20.2322C11.4848 14.4088 16.625 9.67143 22.7172 6.53221C23.0231 6.37424 23.3991 6.48486 23.5714 6.78299L24.8913 9.06893C25.0144 9.28205 25.1377 9.35939 25.1906 9.35939C25.2434 9.35939 25.3667 9.28205 25.4897 9.06893L29.8411 1.53236C29.9641 1.31939 29.9694 1.17393 29.943 1.12814C29.9164 1.08236 29.7878 1.01424 29.5419 1.01424H20.8394C20.5933 1.01424 20.4647 1.08236 20.4383 1.12814C20.4119 1.17393 20.4172 1.31939 20.5402 1.53236L21.8412 3.78564C21.9292 3.93814 21.9511 4.12002 21.9019 4.28893C21.8525 4.45799 21.7364 4.59939 21.58 4.68064C17.9556 6.56471 14.6367 9.00096 11.7158 11.9219C4.16063 19.4771 0 29.522 0 40.2064C0 50.8908 4.16063 60.9356 11.7158 68.4906C19.2706 76.0458 29.3155 80.2064 40 80.2064C50.6844 80.2064 60.7292 76.0458 68.2842 68.4906C75.8392 60.9356 80 50.8908 80 40.2064C80 29.522 75.8392 19.4771 68.2842 11.9222Z" fill="#213C8D"/>
</g>
<defs>
<clipPath id="clip0_136_2995">
<rect width="80" height="80" fill="white" transform="translate(0 0.208984)"/>
</clipPath>
</defs>
</svg>
