<svg width="80" height="81" viewBox="0 0 80 81" fill="none" xmlns="http://www.w3.org/2000/svg">
<g clip-path="url(#clip0_136_2975)">
<path d="M74.8962 39.5045V14.3599C74.8962 8.2436 69.9203 3.26782 63.8042 3.26782H15.8769C9.76062 3.26782 4.78484 8.24376 4.78484 14.3599V39.8289C1.82234 42.9261 0 47.1225 0 51.7366V70.8027C0 74.3025 2.84734 77.15 6.34734 77.15C9.84719 77.15 12.6945 74.3025 12.6945 70.8027V68.8336H67.3056V70.8027C67.3056 74.3025 70.153 77.15 73.6528 77.15C77.1527 77.15 80 74.3027 80 70.8027V51.7366C80 46.9592 78.0462 42.6299 74.8962 39.5045ZM15.8769 6.39282H63.8042C68.1973 6.39282 71.7712 9.96689 71.7712 14.3599V37.0453C70.8142 36.4561 69.7958 35.9577 68.7277 35.5624V30.3664C68.7277 25.7602 64.9802 22.0127 60.3739 22.0127H46.7914C43.9952 22.0127 41.5172 23.395 40.0002 25.5108C38.4831 23.395 36.0052 22.0127 33.2089 22.0127H19.6264C15.0202 22.0127 11.2727 25.76 11.2727 30.3664V35.5624C10.085 36.0019 8.95859 36.5688 7.91 37.2463V14.3599C7.90984 9.96689 11.4837 6.39282 15.8769 6.39282ZM17.2395 34.497C16.2716 34.497 15.3222 34.5786 14.3973 34.7327V30.3664C14.3973 27.4833 16.743 25.1377 19.6261 25.1377H33.2086C36.0917 25.1377 38.4373 27.4833 38.4373 30.3664V34.4972L17.2395 34.497ZM41.5625 30.3663C41.5625 27.4831 43.9081 25.1375 46.7912 25.1375H60.3737C63.2569 25.1375 65.6025 27.4831 65.6025 30.3663V34.7325C64.6775 34.5784 63.7283 34.4969 62.7603 34.4969H41.5625V30.3663ZM17.2395 37.622H62.7603C70.5431 37.622 76.8748 43.9538 76.8748 51.7366V56.372H61.2036C60.3406 56.372 59.6411 57.0717 59.6411 57.9345C59.6411 58.7974 60.3406 59.497 61.2036 59.497H76.875V65.7088H3.125V59.497H24.3518H45.5786C46.4416 59.497 47.1411 58.7974 47.1411 57.9345C47.1411 57.0717 46.4416 56.372 45.5786 56.372H3.125V51.7366C3.125 43.9538 9.45672 37.622 17.2395 37.622ZM9.56953 70.8027C9.56953 72.5794 8.12406 74.025 6.34734 74.025C4.57063 74.025 3.125 72.5794 3.125 70.8027V68.8336H9.56953V70.8027ZM73.6527 74.025C71.8759 74.025 70.4305 72.5794 70.4305 70.8027V68.8336H76.875V70.8027C76.875 72.5794 75.4295 74.025 73.6527 74.025Z" fill="#213C8D"/>
<path d="M53.3903 59.4979C54.2537 59.4979 54.9536 58.798 54.9536 57.9346C54.9536 57.0712 54.2537 56.3713 53.3903 56.3713C52.5269 56.3713 51.827 57.0712 51.827 57.9346C51.827 58.798 52.5269 59.4979 53.3903 59.4979Z" fill="#00A1E1"/>
</g>
<defs>
<clipPath id="clip0_136_2975">
<rect width="80" height="80" fill="white" transform="translate(0 0.208984)"/>
</clipPath>
</defs>
</svg>
