<svg width="80" height="81" viewBox="0 0 80 81" fill="none" xmlns="http://www.w3.org/2000/svg">
<path d="M23.9081 19.282C21.8035 19.282 20.6704 20.4331 20.1433 21.4873C19.6162 22.5415 19.6358 23.5543 19.6358 23.5543V23.6544C19.3521 23.5102 18.7708 23.3143 17.8641 23.3143C15.7596 23.3143 14.6265 24.4655 14.0994 25.5197C13.5723 26.5739 13.5919 27.5866 13.5919 27.5866V39.7736C13.2916 39.645 12.7233 39.4438 11.811 39.4438C9.70157 39.4438 8.57333 40.5949 8.04623 41.6491C7.51914 42.7033 7.53873 43.716 7.53873 43.716V48.7542C7.53873 48.7542 7.5374 51.6614 8.33228 54.9734C9.05901 58.0014 10.5332 61.6883 13.5919 63.6074V74.4432C13.5919 76.0827 14.4875 76.921 15.2897 77.3221C16.0919 77.7232 16.8584 77.7096 16.8584 77.7096H32.9878C32.9878 77.7096 33.745 77.7233 34.5472 77.3221C35.3494 76.921 36.2543 76.0612 36.2543 74.4432V61.3467C40.1513 57.3193 40.2866 50.775 40.2866 50.775V37.6721C40.2866 37.6721 40.297 36.6501 39.7699 35.596C39.2428 34.5418 38.0999 33.3906 36.0051 33.3906C35.0985 33.3906 34.4831 33.6061 34.2335 33.7307V31.619C34.2335 31.619 34.2531 30.6062 33.726 29.552C33.1989 28.4978 32.0853 27.3467 29.9612 27.3467C29.0545 27.3467 28.4538 27.5572 28.1896 27.6868V23.5543C28.1896 23.5543 28.1999 22.5415 27.6728 21.4873C27.1457 20.4331 26.0419 19.282 23.9081 19.282ZM25.4398 22.6038C25.6688 23.0617 25.6889 23.5543 25.6889 23.5543V31.619V42.7103C25.6889 44.3773 28.1896 44.3773 28.1896 42.7103V31.619C28.1896 31.619 28.2005 31.1265 28.4295 30.6685C28.6584 30.2106 29.0611 29.8473 29.9612 29.8473C30.9004 29.8473 31.2548 30.2106 31.4837 30.6685C31.7127 31.1265 31.7329 31.619 31.7329 31.619V37.6721V46.7426C31.7329 48.4097 34.2335 48.4097 34.2335 46.7426V37.6721C34.2335 37.6721 34.2537 37.1704 34.4826 36.7125C34.7116 36.2546 35.1148 35.8912 36.0051 35.8912C36.9053 35.8912 37.3079 36.2546 37.5369 36.7125C37.7658 37.1704 37.786 37.6721 37.786 37.6721V50.775C37.786 50.775 37.7038 56.3843 34.1135 59.9747C33.8832 60.2083 33.7539 60.5232 33.7537 60.8513V74.4432C33.7537 75.209 32.9878 75.209 32.9878 75.209H16.8584C16.8584 75.209 16.0925 75.209 16.0925 74.4432V62.872C16.0917 62.3989 15.8238 61.9668 15.4004 61.7555C12.9228 60.5167 11.4763 57.3805 10.7591 54.3921C10.0419 51.4037 10.0393 48.7542 10.0393 48.7542V43.716C10.0393 43.716 10.0595 43.2235 10.2885 42.7656C10.5174 42.3077 10.9011 41.9444 11.811 41.9444C12.7306 41.9444 13.1138 42.3077 13.3427 42.7656C13.5717 43.2235 13.5919 43.716 13.5919 43.716V48.7542C13.5919 50.4213 16.0925 50.4213 16.0925 48.7542V43.716V27.5866C16.0925 27.5866 16.1035 27.0941 16.3324 26.6362C16.5614 26.1783 16.9483 25.815 17.8641 25.815C18.75 25.815 19.1577 26.1783 19.3867 26.6362C19.6156 27.0941 19.6358 27.5866 19.6358 27.5866V42.7103C19.6358 44.3773 22.1364 44.3773 22.1364 42.7103V27.5866V23.5543C22.1364 23.5543 22.1566 23.0617 22.3855 22.6038C22.6145 22.1459 22.9982 21.7826 23.9081 21.7826C24.8326 21.7826 25.2109 22.1459 25.4398 22.6038Z" fill="#213C8D"/>
<path d="M43.7469 3.95532C33.7994 3.95532 24.3275 8.19207 17.6888 15.6003L19.5435 17.2704C25.7089 10.3904 34.5086 6.45594 43.7469 6.45594C61.711 6.45594 76.2457 20.9906 76.2457 38.9547C76.2457 56.9188 61.711 71.4627 43.7469 71.4627C40.8982 71.4627 38.0641 71.0857 35.3131 70.3462L34.6672 72.7638C37.6298 73.5601 40.6791 73.9633 43.7469 73.9633C63.0621 73.9633 78.7463 58.2699 78.7463 38.9547C78.7463 19.6395 63.0621 3.95532 43.7469 3.95532Z" fill="#213C8D"/>
<path d="M44.7619 20.2324L44.6235 22.733C53.2578 23.1989 59.9963 30.3079 59.9963 38.9547C59.9963 47.9442 52.7363 55.2133 43.7469 55.2133C41.9569 55.2133 40.1809 54.9163 38.4873 54.3368L37.6753 56.699C39.6294 57.3677 41.6815 57.7047 43.7469 57.7047C54.0874 57.7047 62.4969 49.2953 62.4969 38.9547C62.4969 29.0044 54.6978 20.7686 44.7619 20.2324Z" fill="#00A1E1"/>
<path d="M9.07047 15.2126C4.75823 15.2126 1.24567 18.716 1.24567 23.0282V37.386C1.24567 41.5802 4.56566 45.0183 8.71983 45.2016C8.74997 45.2089 8.83056 42.701 8.83056 42.701C5.98022 42.5752 3.74628 40.2752 3.74628 37.386V23.0282C3.74628 20.0577 6.09998 17.7133 9.07047 17.7133H38.4227C41.3932 17.7133 43.7469 20.0577 43.7469 23.0282V37.386C43.7469 40.1811 41.6611 42.4239 38.9487 42.6825L39.1794 45.1739C43.1472 44.7955 46.2475 41.4436 46.2475 37.386V23.0282C46.2475 18.716 42.735 15.2126 38.4227 15.2126H9.07047Z" fill="#00A1E1"/>
<path d="M64.9975 38.9546C63.3304 38.9546 63.3304 41.4552 64.9975 41.4552H72.4993C74.1664 41.4552 74.1664 38.9546 72.4993 38.9546H64.9975Z" fill="#213C8D"/>
<path d="M67.4981 43.956C67.4981 45.6231 69.9987 45.6231 69.9987 43.956V36.4542C69.9987 34.7871 67.4981 34.7871 67.4981 36.4542V43.956Z" fill="#213C8D"/>
<path d="M68.7491 7.70874C67.082 7.70874 67.082 10.2094 68.7491 10.2094H76.2509C77.918 10.2094 77.918 7.70874 76.2509 7.70874H68.7491Z" fill="#213C8D"/>
<path d="M71.2497 12.7099C71.2497 14.377 73.7503 14.377 73.7503 12.7099V5.20807C73.7503 3.541 71.2497 3.541 71.2497 5.20807V12.7099Z" fill="#213C8D"/>
</svg>
